<svg width="800" height="600" viewBox="0 0 800 600" xmlns="http://www.w3.org/2000/svg">
  <rect width="800" height="600" fill="#f5f5f5" />
  <text x="50%" y="50%" dominant-baseline="middle" text-anchor="middle" fill="#666666" font-size="24" font-family="system-ui, sans-serif" font-weight="500">
    Image Not Found
  </text>
  <path d="M160 120v-20c0-6.627 5.373-12 12-12h20c6.627 0 12 5.373 12 12v20c0 6.627-5.373 12-12 12h-20c-6.627 0-12-5.373-12-12zm100 0v-20c0-6.627 5.373-12 12-12h20c6.627 0 12 5.373 12 12v20c0 6.627-5.373 12-12 12h-20c-6.627 0-12-5.373-12-12zm-100 100v-20c0-6.627 5.373-12 12-12h20c6.627 0 12 5.373 12 12v20c0 6.627-5.373 12-12 12h-20c-6.627 0-12-5.373-12-12zm100 0v-20c0-6.627 5.373-12 12-12h20c6.627 0 12 5.373 12 12v20c0 6.627-5.373 12-12 12h-20c-6.627 0-12-5.373-12-12z" fill="#666666" fill-opacity="0.1" transform="scale(2) translate(50, 50)" />
</svg> 